# xmcd
# 
# Track frame offsets:
#     150
#     9849
#     19333
#     38893
#     64253
#     74695
#     93676
#     110872
#     127664
#     150348
#     165740
#     198515
#     212128
#     224671
#     237934
# 
# Disc length: 3331
# 
# Revision: 3
# Processed by: cddbd v1.5.2PL0 Copyright (c) Steve Scherf et al.
# Submitted via: fre:ac v1.0.31
# 
DISCID=da0d010f
DTITLE=Various Artist - Best Of Blues [CD 1)
DYEAR=0
DGENRE=Blues
TTITLE0=John Lee Hooker - Dimples
TTITLE1=Eric Clapton and Jimmy Page - Tribute To Elmore
TTITLE2=Muddy Waters - Please Don't Go
TTITLE3=Junior Wells - Got My Mojo Working
TTITLE4=Lightnin' Hopknis - Coffee House Blues
TTITLE5=John Mayall - John Lee Boogie
TTITLE6=The Blues Instigators - How Blue Can You Get
TTITLE7=Rod Piazza and The Mighty Flyers - Mellow Down Easy
TTITLE8=Loonie Brooks - Trading Post
TTITLE9=Bessie Smith - Careless Love
TTITLE10=Roy Buchanan - Blues In E
TTITLE11=Lightnin' Hopkins - Mojo Hand
TTITLE12=Jimmy Reed - Shame Shame Shame
TTITLE13=Eddie Taylor - Big Town Playboy
TTITLE14=Robert Johnson - Crossroad Blues
EXTD=
EXTT0=
EXTT1=
EXTT2=
EXTT3=
EXTT4=
EXTT5=
EXTT6=
EXTT7=
EXTT8=
EXTT9=
EXTT10=
EXTT11=
EXTT12=
EXTT13=
EXTT14=
PLAYORDER=
